<?xml version="1.0" encoding="UTF-8" standalone="no"?><!DOCTYPE svg PUBLIC "-//W3C//DTD SVG 1.1//EN" "http://www.w3.org/Graphics/SVG/1.1/DTD/svg11.dtd"><svg width="100%" height="100%" viewBox="0 0 970 226" version="1.1" xmlns="http://www.w3.org/2000/svg" xmlns:xlink="http://www.w3.org/1999/xlink" xml:space="preserve" xmlns:serif="http://www.serif.com/" style="fill-rule:evenodd;clip-rule:evenodd;"><g><path d="M128.279,57.677l-14.317,-23.519l-6.181,10.132l-16.169,29.066l-13.717,27.419l-6.935,14.717l-6.999,15.743l-10.767,24.506l-10.779,26.99l-7.906,21.517l-1.826,2.077l0.907,-4.09l7.075,-25.989l7.421,-22.632l17.216,-42.327l16.795,-36.082l11.75,-22.493l20.115,-33.068l12.989,20.897l20.013,37.197l15.952,33.727l15.403,37.792l10.077,29.661l5.849,25.292l-1.967,-2.773l-11.788,-31.473l-12.874,-30.814l-14.841,-32.751l-24.496,-48.722Z" style="fill:#fff;stroke:#222;stroke-width:0.11px;"/><path d="M118.075,64.364l-4.509,-6.333l-5.556,8.334l-16.794,30.446l-14.688,30.447l-11.941,27.242l-3.857,8.802l-5.952,14.527l-4.892,13.843l-4.942,12.792l-0.92,1.861l9.924,-36.905l5.773,-16.49l8.059,-18.732l10.843,-24.468l12.861,-25.584l11.788,-21.429l9.796,-16.692l10.524,15.565l14.074,25.761l6.923,13.88l1.915,3.737l11.636,26.457l10.677,26.368l11.277,35.133l2.81,11.449l-1.929,-2.077l-9.796,-27.065l-2.797,-7.029l-4.112,-9.714l-17.587,-40.085l-18.979,-37.387l-9.629,-16.654Z" style="fill:#fff;stroke:#222;stroke-width:0.22px;"/><path d="M0,91.923l0,-0.52l0.396,-0.975l0.383,-0.671l0.396,-0.697l0.575,-0.57l0.549,-0.468l1.022,0l6.909,1l15.697,0.9l14.828,0.873l15.926,1.039l16.705,1.001l15.786,0l21.738,0.519l-22.785,0.481l-17.804,0.988l-11.852,1.051l-9.758,0.988l-8.914,0.963l-8.928,0.949l-8.927,0.976l-11.405,1.241l1.52,1.684l2.975,3.863l3.985,3.989l2.976,2.913l3.934,3.99l5.9,5.762l6.999,5.991l5.862,4.851l6.859,5.826l6.041,4.812l5.811,4.952l17.101,13.792l6.654,4.686l16.693,11.69l-3.027,-0.912l-11.801,-5.864l-17.025,-10.625l-10.792,-7.979l-6.692,-4.813l-4.905,-3.863l-6.871,-5.94l-11.89,-9.891l-13.692,-13.577l-7.918,-7.802l-7.127,-8.776l-1.737,-2.014l-0.37,-4.813l0,-1Z" style="fill:#fff;stroke:#222;stroke-width:0.22px;"/><path d="M229.38,91.973l0,-0.519l-0.396,-0.975l-0.37,-0.671l-0.396,-0.697l-0.575,-0.57l-0.549,-0.469l-1.022,0l-6.909,1.001l-15.709,0.912l-14.828,0.861l-15.914,1.039l-16.705,1l-15.799,0l-21.737,0.519l22.797,0.482l17.791,1l11.852,1.039l9.758,1l8.927,0.95l8.915,0.95l8.927,0.975l11.418,1.241l-1.532,1.685l-2.976,3.863l-3.972,3.989l-2.976,2.913l-3.946,3.99l-5.901,5.762l-6.999,5.991l-5.862,4.85l-6.858,5.826l-6.029,4.813l-5.824,4.952l-17.101,13.792l-6.641,4.686l-16.693,11.69l3.014,-0.912l11.814,-5.864l17.012,-10.626l10.805,-7.979l6.692,-4.812l4.905,-3.863l6.858,-5.94l11.903,-9.891l13.692,-13.577l7.918,-7.802l7.127,-8.777l1.724,-2.013l0.37,-4.813l0,-1.001Z" style="fill:#fff;stroke:#222;stroke-width:0.22px;"/><path d="M112.902,128.626l1.635,-40.946l1.711,40.946l0,24.152l-0.855,40.781l-2.491,-41.376l0,-23.557Z" style="fill:#fff;stroke:#222;stroke-width:0.22px;"/></g><rect x="294.941" y="50.561" width="3.316" height="124.579" style="fill:#fff;fill-opacity:0.82;"/><g transform="matrix(0.75,0,0,0.75,-127.887,-178.691)"><text x="640px" y="414.316px" style="font-family:'Roboto-Regular', 'Roboto';font-size:72px;fill:#fff;">FI<tspan x="698.359px 739.914px 756.332px " y="414.316px 414.316px 414.316px ">T T</tspan>ECH INO<tspan x="1075.87px 1119.04px " y="414.316px 414.316px ">VA</tspan></text><text x="1183.83px" y="414.316px" style="font-family:'Roboto-Bold', 'Roboto';font-weight:700;font-size:72px;fill:#4fd9ff;">GL<tspan x="1269.61px " y="414.316px ">O</tspan>BAL</text></g></svg>